<svg xmlns="http://www.w3.org/2000/svg" width="10" height="10" viewBox="0 0 10 10">
  <path id="envelope-square-solid" d="M8.929,32H1.071A1.071,1.071,0,0,0,0,33.071v7.857A1.071,1.071,0,0,0,1.071,42H8.929A1.071,1.071,0,0,0,10,40.929V33.071A1.071,1.071,0,0,0,8.929,32ZM3.976,37.136c-2.024-1.469-2-1.473-2.547-1.9v-.562a.536.536,0,0,1,.536-.536H8.036a.536.536,0,0,1,.536.536v.562c-.544.423-.523.427-2.547,1.9-.234.171-.7.583-1.024.578S4.211,37.307,3.976,37.136Zm4.6-.989v3.175a.536.536,0,0,1-.536.536H1.964a.536.536,0,0,1-.536-.536V36.147c.312.241.744.563,2.127,1.567A2.642,2.642,0,0,0,5,38.429a2.648,2.648,0,0,0,1.445-.715C7.828,36.71,8.26,36.388,8.571,36.147Z" transform="translate(0 -32)"/>
</svg>
