<svg xmlns="http://www.w3.org/2000/svg" width="10" height="10" viewBox="0 0 10 10">
  <path id="github-square-brands" d="M8.929,32H1.071A1.072,1.072,0,0,0,0,33.071v7.857A1.072,1.072,0,0,0,1.071,42H8.929A1.072,1.072,0,0,0,10,40.929V33.071A1.072,1.072,0,0,0,8.929,32ZM6.19,40.565c-.187.033-.257-.083-.257-.179,0-.121,0-.737,0-1.234a.87.87,0,0,0-.252-.685c.826-.092,1.7-.205,1.7-1.632A1.146,1.146,0,0,0,7,35.964a1.4,1.4,0,0,0-.038-1c-.31-.1-1.02.4-1.02.4a3.511,3.511,0,0,0-1.857,0s-.71-.5-1.02-.4a1.385,1.385,0,0,0-.038,1,1.121,1.121,0,0,0-.348.871c0,1.42.833,1.54,1.658,1.632a.809.809,0,0,0-.237.5.783.783,0,0,1-1.078-.31.778.778,0,0,0-.569-.382c-.362,0-.025.228-.025.228.241.112.411.54.411.54.217.663,1.252.44,1.252.44,0,.31,0,.815,0,.906s-.067.212-.257.179a3.7,3.7,0,0,1-2.5-3.533,3.542,3.542,0,0,1,3.616-3.6,3.621,3.621,0,0,1,3.71,3.6A3.669,3.669,0,0,1,6.19,40.565ZM4,39.2c-.042.009-.083-.009-.087-.038s.025-.062.067-.071.083.013.087.042S4.045,39.192,4,39.2Zm-.212-.02c0,.029-.033.054-.078.054s-.083-.02-.083-.054.033-.054.078-.054S3.788,39.147,3.788,39.181Zm-.306-.025c-.009.029-.054.042-.092.029s-.071-.042-.062-.071.054-.042.092-.033S3.493,39.127,3.482,39.156Zm-.275-.121c-.02.025-.062.02-.1-.013s-.042-.071-.02-.092.062-.02.1.013S3.228,39.018,3.208,39.036Zm-.2-.2c-.02.013-.058,0-.083-.033s-.025-.071,0-.087.063,0,.083.029A.065.065,0,0,1,3,38.833Zm-.145-.217c-.02.02-.054.009-.078-.013s-.029-.062-.009-.078.054-.009.078.013S2.879,38.6,2.859,38.616Zm-.15-.165a.042.042,0,0,1-.063.009c-.029-.013-.042-.038-.033-.058a.053.053,0,0,1,.063-.009C2.705,38.408,2.719,38.433,2.71,38.451Z" transform="translate(0 -32)"/>
</svg>
