<svg id="instagram" xmlns="http://www.w3.org/2000/svg" width="25" height="25" viewBox="0 0 34.741 34.741">
  <circle id="Ellipse_5" data-name="Ellipse 5" cx="17.37" cy="17.37" r="17.37" fill="#6c27b3"/>
  <path id="Path_55" data-name="Path 55" d="M140.649,125.937a31.33,31.33,0,0,1-6.876.05c-3.259-.251-8.021-1.755-9.776,1.253-2.819,4.815-1.428,10.98-.772,16.436l9.8,9.793A18.612,18.612,0,0,0,150.6,135.891Z" transform="translate(-115.889 -118.756)" fill="#501a96"/>
  <g id="Group_1" data-name="Group 1" transform="translate(6.718 6.718)">
    <path id="Path_56" data-name="Path 56" d="M124.427,109.468h-8.612a6.354,6.354,0,0,0-6.347,6.347v8.612a6.354,6.354,0,0,0,6.347,6.347h8.612a6.354,6.354,0,0,0,6.347-6.347v-8.612a6.354,6.354,0,0,0-6.347-6.347Zm4.2,14.959a4.2,4.2,0,0,1-4.2,4.2h-8.612a4.2,4.2,0,0,1-4.2-4.2v-8.612a4.2,4.2,0,0,1,4.2-4.2h8.612a4.2,4.2,0,0,1,4.2,4.2Z" transform="translate(-109.468 -109.468)" fill="#fff"/>
    <path id="Path_57" data-name="Path 57" d="M185.713,180.2a5.51,5.51,0,1,0,5.51,5.511,5.517,5.517,0,0,0-5.51-5.511Zm0,8.878a3.367,3.367,0,1,1,3.367-3.367,3.367,3.367,0,0,1-3.367,3.367Z" transform="translate(-175.06 -175.06)" fill="#fff"/>
  </g>
  <g id="Group_2" data-name="Group 2" transform="translate(16.832 6.718)">
    <path id="Path_58" data-name="Path 58" d="M316.418,163.931a1.32,1.32,0,1,1-1.32-1.32,1.32,1.32,0,0,1,1.32,1.32Z" transform="translate(-309.535 -158.747)" fill="#d1d1d1"/>
    <path id="Path_59" data-name="Path 59" d="M259.774,109.468h-4.348v2.143h4.348a4.2,4.2,0,0,1,4.2,4.2v8.612a4.2,4.2,0,0,1-4.2,4.2h-4.348v2.143h4.348a6.354,6.354,0,0,0,6.347-6.347v-8.612A6.354,6.354,0,0,0,259.774,109.468Z" transform="translate(-255.426 -109.468)" fill="#d1d1d1"/>
    <path id="Path_60" data-name="Path 60" d="M255.468,180.2h-.042v2.143h.042a3.367,3.367,0,0,1,0,6.734h-.042v2.143h.042a5.51,5.51,0,0,0,0-11.021Z" transform="translate(-255.426 -175.06)" fill="#d1d1d1"/>
  </g>
</svg>
