<svg xmlns="http://www.w3.org/2000/svg" width="10" height="10" viewBox="0 0 10 10">
  <path id="linkedin-brands" d="M9.286,32H.712A.717.717,0,0,0,0,32.721v8.558A.717.717,0,0,0,.712,42H9.286A.719.719,0,0,0,10,41.279V32.721A.719.719,0,0,0,9.286,32ZM3.022,40.571H1.54V35.8H3.025v4.772Zm-.741-5.424a.859.859,0,1,1,.859-.859A.86.86,0,0,1,2.281,35.147Zm6.3,5.424H7.1V38.25c0-.554-.011-1.266-.77-1.266s-.891.6-.891,1.225v2.362H3.953V35.8H5.375v.652H5.4a1.561,1.561,0,0,1,1.4-.77c1.5,0,1.779.989,1.779,2.275Z" transform="translate(0 -32)"/>
</svg>
