<svg xmlns="http://www.w3.org/2000/svg" width="178.365" height="31" viewBox="0 0 178.365 31">
  <g id="logo" transform="translate(-150 -26)">
    <path id="Path_1" data-name="Path 1" d="M367.2,525.7a5.741,5.741,0,1,0,0,11.471,6.1,6.1,0,0,0,3.551-1.117,2.94,2.94,0,0,0,2.446,1.117v-5.736A5.868,5.868,0,0,0,367.2,525.7Zm3.046,5.932a3.045,3.045,0,1,1-2.888-3.049A2.99,2.99,0,0,1,370.244,531.632Z" transform="translate(-205.101 -486.165)"/>
    <path id="Path_2" data-name="Path 2" d="M475.9,542.6" transform="translate(-301.698 -500.514)" stroke="#fff" stroke-miterlimit="10" stroke-width="3"/>
    <path id="Path_3" data-name="Path 3" d="M322.564,522.233c.205,6.2,5.792,11.29,12.279,11.184a12.264,12.264,0,0,0,5.808-1.524v-3.441a9.391,9.391,0,0,1-8.018,1.9,8.718,8.718,0,0,1-6.755-6.324,8.567,8.567,0,0,1,4.2-9.63,20.6,20.6,0,0,0-6.455,2.687A11.071,11.071,0,0,0,322.564,522.233Z" transform="translate(-172.557 -476.571)"/>
    <path id="Path_4" data-name="Path 4" d="M340.406,485.593A12.011,12.011,0,0,0,329.2,492.4a20.6,20.6,0,0,1,6.455-2.687,9.443,9.443,0,0,1,8.9-.181,20.525,20.525,0,0,1,6.408,2.309A12.081,12.081,0,0,0,340.406,485.593Z" transform="translate(-178.152 -452.11)" fill="#60bdaf"/>
    <path id="Path_5" data-name="Path 5" d="M434.465,520.913a11.07,11.07,0,0,0-1.357-5.4A20.91,20.91,0,0,0,426.7,513.2a8.657,8.657,0,0,1,4.782,7.124h.016v8.09A11.274,11.274,0,0,0,434.465,520.913Z" transform="translate(-260.263 -475.552)"/>
    <text id="ayokunleao" transform="translate(183.365 51)" font-size="27" font-family="Raleway-Regular, Raleway"><tspan x="0" y="0">ayokunleao</tspan></text>
  </g>
</svg>
