<svg xmlns="http://www.w3.org/2000/svg" width="10" height="10" viewBox="0 0 10 10">
  <path id="medium-brands" d="M0,32V42H10V32Zm8.308,2.368-.536.513a.157.157,0,0,0-.06.15V38.81a.154.154,0,0,0,.06.15l.525.513v.114H5.663v-.109l.542-.527c.054-.054.054-.069.054-.15V35.746L4.75,39.576h-.2L2.79,35.746v2.567a.353.353,0,0,0,.1.295l.705.855v.114h-2v-.114l.705-.855a.342.342,0,0,0,.092-.295V35.344a.255.255,0,0,0-.085-.219l-.627-.757v-.114H3.623l1.5,3.3,1.324-3.3H8.308Z" transform="translate(0 -32)"/>
</svg>
