<svg id="twitter" xmlns="http://www.w3.org/2000/svg" width="25" height="25" viewBox="0 0 34.741 34.741">
  <circle id="Ellipse_6" data-name="Ellipse 6" cx="17.37" cy="17.37" r="17.37" transform="translate(0 0)" fill="#55acee"/>
  <g id="Group_3" data-name="Group 3" transform="translate(6.219 9.18)">
    <path id="Path_61" data-name="Path 61" d="M48.239,36.254A9.47,9.47,0,0,1,45.513,37,4.76,4.76,0,0,0,47.6,34.375a9.5,9.5,0,0,1-3.014,1.152,4.751,4.751,0,0,0-8.089,4.33,13.474,13.474,0,0,1-9.784-4.96,4.752,4.752,0,0,0,1.469,6.338,4.713,4.713,0,0,1-2.15-.594c0,.02,0,.04,0,.06a4.749,4.749,0,0,0,3.808,4.654,4.765,4.765,0,0,1-2.143.082,4.752,4.752,0,0,0,4.434,3.3A9.582,9.582,0,0,1,25.1,50.7,13.5,13.5,0,0,0,45.884,39.324c0-.206,0-.411-.014-.614a9.625,9.625,0,0,0,2.369-2.457Z" transform="translate(-25.103 -34.028)" fill="#f1f2f2"/>
  </g>
</svg>
