<svg xmlns="http://www.w3.org/2000/svg" width="425.098" height="407.226" viewBox="0 0 425.098 407.226">
  <g id="undraw_laravel_and_vue_59tp" transform="translate(-1051.243 -151.984)">
    <path id="Path_6" data-name="Path 6" d="M549.564,189.042c-22.125-87-98.574-149.8-188.308-152.322-47.44-1.332-97.36,14.4-133.7,69.46-64.971,98.422,3.993,166.435,52.073,198.754a300.848,300.848,0,0,1,62.184,55.891c32.476,38.539,94.953,86.428,169.361,11.393C565.1,317.831,564.3,246.993,549.564,189.042Z" transform="translate(866.231 115.341)" fill="#f2f2f2"/>
    <path id="Path_7" data-name="Path 7" d="M593.105,722.063c0,21.356-93.191,61.08-210.579,61.08S168.5,745.882,168.5,724.526s96.639-18.718,214.027-18.718S593.105,700.708,593.105,722.063Z" transform="translate(882.743 -223.933)" fill="#3f3d56"/>
    <path id="Path_8" data-name="Path 8" d="M593.105,722.063c0,21.356-93.191,61.08-210.579,61.08S168.5,745.882,168.5,724.526s96.639-18.718,214.027-18.718S593.105,700.708,593.105,722.063Z" transform="translate(882.743 -223.933)" opacity="0.1"/>
    <ellipse id="Ellipse_1" data-name="Ellipse 1" cx="212.549" cy="38.668" rx="212.549" ry="38.668" transform="translate(1051.243 461.679)" fill="#3f3d56"/>
    <path id="Path_9" data-name="Path 9" d="M594.859,440.238V543.653l17.3,28.191,1.317,2.144h68.254l1.379-133.75Z" transform="translate(749.401 -71.4)" fill="#2f2e41"/>
    <path id="Path_10" data-name="Path 10" d="M594.859,440.238V543.653l17.3,28.191,1.062-131.606Z" transform="translate(749.401 -71.4)" opacity="0.1"/>
    <path id="Path_11" data-name="Path 11" d="M169.442,434.639V538.054l-17.3,28.191-1.317,2.144H82.574l-1.379-133.75Z" transform="translate(1010.043 -68.559)" fill="#2f2e41"/>
    <path id="Path_12" data-name="Path 12" d="M241.435,434.639V538.054l-17.3,28.191-1.062-131.606Z" transform="translate(938.051 -68.559)" opacity="0.1"/>
    <path id="Path_13" data-name="Path 13" d="M433.914,409.135v6.205H63v-8.963l34.471-17.925H403.579Z" transform="translate(1019.276 -45.122)" fill="#2f2e41"/>
    <path id="Path_14" data-name="Path 14" d="M433.914,427.6V433.8H63v-8.963Z" transform="translate(1019.276 -63.587)" opacity="0.1"/>
    <path id="Path_15" data-name="Path 15" d="M146.624,488.452H130.078l-6.894-4.826h31.024Z" transform="translate(988.737 -93.415)" opacity="0.1"/>
    <path id="Path_16" data-name="Path 16" d="M146.624,529.041H130.078l-6.894-4.826h31.024Z" transform="translate(988.737 -114.011)" opacity="0.1"/>
    <path id="Path_17" data-name="Path 17" d="M146.624,586.426H130.078l-6.894-4.826h31.024Z" transform="translate(988.737 -143.129)" opacity="0.1"/>
    <path id="Path_18" data-name="Path 18" d="M146.624,643.811H130.078l-6.894-4.826h31.024Z" transform="translate(988.737 -172.247)" opacity="0.1"/>
    <path id="Path_19" data-name="Path 19" d="M676.623,494.051h16.546l6.894-4.826H669.039Z" transform="translate(711.76 -96.256)" opacity="0.1"/>
    <path id="Path_20" data-name="Path 20" d="M676.623,534.64h16.546l6.894-4.826H669.039Z" transform="translate(711.76 -116.852)" opacity="0.1"/>
    <path id="Path_21" data-name="Path 21" d="M676.623,592.025h16.546l6.894-4.826H669.039Z" transform="translate(711.76 -145.97)" opacity="0.1"/>
    <path id="Path_22" data-name="Path 22" d="M676.623,649.409h16.546l6.894-4.826H669.039Z" transform="translate(711.76 -175.087)" opacity="0.1"/>
    <path id="Path_23" data-name="Path 23" d="M692.262,389.158l-2.3,14.683s-11.321,6.015-3.361,6.191,45.463,0,45.463,0,7.253,0-4.246-6.368l-2.3-15.39Z" transform="translate(621.288 -63.082)" fill="#3f3d56"/>
    <path id="Path_24" data-name="Path 24" d="M685,409.873a31.318,31.318,0,0,1,4.962-3.285l2.3-14.683,33.257.031,2.3,14.475a30.2,30.2,0,0,1,5.314,3.5c1.477-.337,3.091-1.589-5.314-6.244l-2.3-15.39-33.257.885-2.3,14.683S680.452,408.9,685,409.873Z" transform="translate(621.285 -63.082)" opacity="0.1"/>
    <rect id="Rectangle_17" data-name="Rectangle 17" width="149.833" height="104.371" rx="10.695" transform="translate(1255.085 223.74)" fill="#3f3d56"/>
    <rect id="Rectangle_18" data-name="Rectangle 18" width="139.75" height="78.19" transform="translate(1260.127 229.312)" fill="#f2f2f2"/>
    <ellipse id="Ellipse_2" data-name="Ellipse 2" cx="0.884" cy="0.884" rx="0.884" ry="0.884" transform="translate(1329.117 225.951)" fill="#f2f2f2"/>
    <path id="Path_25" data-name="Path 25" d="M732.158,364.931v9.149a5.268,5.268,0,0,1-5.269,5.268h-139.3a5.268,5.268,0,0,1-5.268-5.269v-9.149Z" transform="translate(672.761 -51.237)" fill="#3f3d56"/>
    <ellipse id="Ellipse_3" data-name="Ellipse 3" cx="3.361" cy="3.361" rx="3.361" ry="3.361" transform="translate(1326.641 317.585)" fill="#f2f2f2"/>
    <path id="Path_26" data-name="Path 26" d="M457.243,408.636v1.769H362.071V408.99l.131-.354,2.346-6.368H455.3Z" transform="translate(867.521 -52.133)" fill="#3f3d56"/>
    <path id="Path_27" data-name="Path 27" d="M770.611,442.048c-.173.741-.828,1.523-2.307,2.263-5.307,2.654-16.1-.708-16.1-.708s-8.314-1.415-8.314-5.13a6.646,6.646,0,0,1,.729-.433c2.231-1.18,9.629-4.093,22.746.123a5.471,5.471,0,0,1,2.493,1.634A2.609,2.609,0,0,1,770.611,442.048Z" transform="translate(590.778 -87.277)" fill="#3f3d56"/>
    <path id="Path_28" data-name="Path 28" d="M771.362,442.048c-6.5,2.489-12.286,2.675-18.228-1.452a13.049,13.049,0,0,0-7.762-2.556c2.231-1.18,9.629-4.093,22.746.123a5.471,5.471,0,0,1,2.493,1.634,2.609,2.609,0,0,1,.75,2.251Z" transform="translate(590.027 -87.277)" opacity="0.1"/>
    <ellipse id="Ellipse_4" data-name="Ellipse 4" cx="2.3" cy="0.708" rx="2.3" ry="0.708" transform="translate(1350.946 351.904)" fill="#f2f2f2"/>
    <path id="Path_29" data-name="Path 29" d="M457.243,415.2v1.769H362.071V415.55l.131-.354Z" transform="translate(867.521 -58.693)" opacity="0.1"/>
    <path id="Path_30" data-name="Path 30" d="M726.169,233.9c-.751-.751-10.387-12.89-12.014-14.893-1.752-2-2.5-1.627-3.629-1.5s-13.266,2.253-14.642,2.378c-1.377.25-2.253.751-1.377,2,.751,1.126,8.76,12.39,10.512,15.018l-31.913,7.634-25.28-42.425c-1-1.5-1.251-2-3.5-1.877s-19.9,1.627-21.15,1.627c-1.251.125-2.628.626-1.377,3.629s21.275,46.054,21.776,47.306,2,3.254,5.381,2.5c3.5-.876,15.518-4,22.151-5.757,3.5,6.257,10.512,19.022,11.889,20.9,1.752,2.5,3,2,5.632,1.251,2.128-.626,32.789-11.639,34.165-12.264s2.253-1,1.252-2.378c-.751-1-8.76-11.889-13.015-17.521,2.878-.751,13.266-3.5,14.392-3.88,1.251-.375,1.5-1,.751-1.752Zm-57.943,11.889c-.375.125-18.271,4.38-19.148,4.63-1,.25-1,.125-1-.25-.25-.375-21.275-43.927-21.651-44.428-.25-.5-.25-1,0-1s16.895-1.5,17.4-1.5c.626,0,.5.125.751.5,0,0,23.4,40.423,23.778,41.049.5.626.25.876-.125,1Zm50.309,9.386c.25.5.626.751-.375,1-.876.375-30.16,10.262-30.786,10.512s-1,.375-1.752-.751-10.262-17.521-10.262-17.521l31.162-8.135c.751-.25,1-.375,1.5.375.5.876,10.262,14.142,10.512,14.517Zm2-22.026c-.751.125-12.139,3-12.139,3l-9.386-12.765c-.25-.375-.5-.751.125-.876s11.263-2,11.764-2.128.876-.25,1.5.626c.626.751,8.635,11.013,9.011,11.388S721.288,233.02,720.537,233.146Z" transform="translate(652.983 32.343)" fill="#fb503b"/>
    <path id="Path_51" data-name="Path 51" d="M18.84,0a18.84,18.84,0,0,1,18.84,18.84,19.152,19.152,0,0,1-.81,5.481A18.842,18.842,0,1,1,18.84,0Z" transform="translate(1226.795 209.936)" fill="#844204"/>
    <path id="Path_31" data-name="Path 31" d="M534.957,209.107v29.747H565.7s-3.966-24.789-1.983-32.226Z" transform="translate(696.796 29.088)" fill="#844204"/>
    <path id="Path_32" data-name="Path 32" d="M556.1,267.811s-29.251-14.378-29.251-15.369-2.975-7.437-4.958-7.437-18.84-5.454-28.259,2.479l-.992,6.445-36.192,23.8,9.916,36.192s6.445,6.941,4.462,11.9,1.487,30.243,1.487,30.243l77.837-2.479V319.868s2.479-7.933,3.966-10.411,0-9.916,0-9.916l11.9-14.873S564.531,270.786,556.1,267.811Z" transform="translate(736.631 10.542)" fill="#d0cde1"/>
    <path id="Path_33" data-name="Path 33" d="M449.4,325.463l2.231-12.147s-12.89,56.024-11.4,62.469,12.395,16.361,13.882,16.857S469.475,350,469.475,350Z" transform="translate(744.926 -25.047)" opacity="0.1"/>
    <path id="Path_34" data-name="Path 34" d="M453.01,310.3l-8.428,1.487s-12.89,56.023-11.4,62.468,12.394,16.361,13.882,16.857,15.369-42.637,15.369-42.637Z" transform="translate(748.501 -23.515)" fill="#d0cde1"/>
    <path id="Path_35" data-name="Path 35" d="M650.246,335.587l4.214-8.18s5.949,56.024,1.983,61.477-19.655,7.494-19.655,7.494l-.176-40.712Z" transform="translate(645.214 -32.197)" opacity="0.1"/>
    <path id="Path_36" data-name="Path 36" d="M654.055,314.323l6.445,6.445s5.949,56.024,1.983,61.477-19.655,7.494-19.655,7.494l-.176-40.712Z" transform="translate(642.15 -25.558)" fill="#d0cde1"/>
    <path id="Path_37" data-name="Path 37" d="M452.708,485.968s-14.378-5.454-16.857,4.958,5.949,57.015,5.949,57.015,5.454,35.2,8.924,36.192,18.84,1.487,21.318-2.975-7.437-50.074-7.437-50.074l57.51-.992s-3.47,39.662-5.454,43.133-1.983,15.369,0,15.369,23.8-.992,25.285-3.966,9.916-69.905,9.916-69.905,6.941-23.3-.992-21.814S452.708,485.968,452.708,485.968Z" transform="translate(747.316 -111.929)" fill="#3f3d56"/>
    <path id="Path_38" data-name="Path 38" d="M622.734,682.116s4.958-3.471,7.437,0,3.47,7.437-7.437,13.386-19.335,4.462-19.335,3.471V684.6Z" transform="translate(662.067 -211.399)" fill="#2f2e41"/>
    <path id="Path_39" data-name="Path 39" d="M459.206,679.1s-4.958-3.47-7.437,0-3.47,7.437,7.437,13.386,19.335,4.462,19.335,3.471V681.576Z" transform="translate(739.826 -209.867)" fill="#2f2e41"/>
    <path id="Path_40" data-name="Path 40" d="M541.32,144.3a15.934,15.934,0,0,0-5.533.789,21.387,21.387,0,0,0-3.942,2.086l-8.318,5.173a3.9,3.9,0,0,0-2.348,3.63l-1.039,7.784c-.262,1.964-.5,4.065.375,5.841.734,1.482,2.134,2.5,3.284,3.685a13.525,13.525,0,0,1,3.565,6.926c.6,3.25.214,7.163,2.786,9.237a8.739,8.739,0,0,0,5.076,1.44,75.753,75.753,0,0,0,14.63-.563,5.822,5.822,0,0,0,2.21-.619,6.072,6.072,0,0,0,1.939-2.306c1.857-3.162,3.772-6.526,3.752-10.194-.01-1.814-.474-3.763.4-5.354a20.926,20.926,0,0,1,1.5-1.943,10.734,10.734,0,0,0,1.464-5.315c.561-5.915-.026-10.417-4.385-14.584C552.66,146.124,546.87,144.338,541.32,144.3Z" transform="translate(704.437 60.718)" fill="#181818"/>
    <path id="Path_41" data-name="Path 41" d="M283.892,569.7l-16.546,84.111h8.273l15.857-82.732Z" transform="translate(915.587 -137.092)" fill="#2f2e41"/>
    <path id="Path_42" data-name="Path 42" d="M408.708,580.859,419.05,677.38h6.894L419.739,578.1Z" transform="translate(843.857 -141.353)" fill="#2f2e41"/>
    <path id="Path_43" data-name="Path 43" d="M466.093,576.681,480.571,640.8h6.894l-13.788-65.5Z" transform="translate(814.739 -139.933)" fill="#2f2e41"/>
    <path id="Path_44" data-name="Path 44" d="M351.992,578.1l-2.068,51.018h5.515l4.137-51.018Z" transform="translate(873.685 -141.353)" fill="#2f2e41"/>
    <path id="Path_45" data-name="Path 45" d="M443.68,509.083s-11.031-73.769,19.993-75.838,75.148,0,75.148,0,25.509-2.068,17.925,75.838c0,0,6.894,22.751-55.154,20.683S443.68,509.083,443.68,509.083Z" transform="translate(744.078 -85.434)" fill="#1b2240"/>
    <path id="Path_46" data-name="Path 46" d="M984.309,619.2c0,12.864-7.647,17.356-17.081,17.356s-17.081-4.492-17.081-17.356,17.081-29.229,17.081-29.229S984.309,606.335,984.309,619.2Z" transform="translate(486.121 -165.426)" fill="#4dba87"/>
    <path id="Path_47" data-name="Path 47" d="M808.163,587.178l7.28-13.319-7.253,11.63.079-4.841,5.018-9.636-5,8.355.141-8.706,5.373-7.671-5.351,6.3.089-15.965-.531,20.229-5.441-8.328,5.375,10.035-.509,9.724-.015-.258-6.3-8.8,6.278,9.711-.064,1.216-.011.018.005.1L806.04,599.95h1.725l.207-1.048,6.263-9.688-6.248,8.73Z" transform="translate(644.738 -128.783)" fill="#3f3d56"/>
    <path id="Path_48" data-name="Path 48" d="M812.072,673.908H791.708l-5.263-29.745H816.19Z" transform="translate(652.186 -174.874)" fill="#2f2e41"/>
    <rect id="Rectangle_19" data-name="Rectangle 19" width="42.362" height="49.666" transform="translate(1122.667 297.937)" fill="#3f3d56"/>
    <rect id="Rectangle_20" data-name="Rectangle 20" width="29.215" height="34.252" transform="translate(1129.241 305.644)" fill="#f2f2f2"/>
    <path id="Path_49" data-name="Path 49" d="M346.155,363.357l-2.967,5.138-2.967-5.138h-9.879l12.846,22.25,12.846-22.25Z" transform="translate(800.621 -50.439)" fill="#4dba87"/>
    <path id="Path_50" data-name="Path 50" d="M351.448,363.357l-2.967,5.138-2.967-5.138h-4.74l7.708,13.35,7.708-13.35Z" transform="translate(795.328 -50.439)" fill="#435466"/>
  </g>
</svg>
