<svg id="whatsapp" xmlns="http://www.w3.org/2000/svg" width="25" height="25" viewBox="0 0 34.741 34.741">
  <path id="Path_52" data-name="Path 52" d="M0,34.741l2.4-8.685A17.278,17.278,0,0,1,17.311,0a17.449,17.449,0,0,1,17.43,17.251,17.655,17.655,0,0,1-17.43,17.49,17.437,17.437,0,0,1-8.446-2.4Z" fill="#ededed"/>
  <path id="Path_53" data-name="Path 53" d="M50.328,69.714l.526.292a13.864,13.864,0,0,0,7.3,2.161A14.156,14.156,0,0,0,72.166,58.035a14.015,14.015,0,0,0-28.028,0A14.145,14.145,0,0,0,46.3,65.568l.35.526L45.306,71Z" transform="translate(-40.782 -40.782)" fill="#55cd6c"/>
  <path id="Path_54" data-name="Path 54" d="M134.077,135.129l-1.275-.067a1.524,1.524,0,0,0-1.074.4,5.561,5.561,0,0,0-1.88,2.886c-.47,2.014.268,4.43,2.014,6.847a20.342,20.342,0,0,0,11.009,7.988,5.453,5.453,0,0,0,4.565-.537,3.96,3.96,0,0,0,1.745-2.551l.2-.94a.675.675,0,0,0-.336-.738l-4.229-1.947a.64.64,0,0,0-.805.2l-1.678,2.148a.522.522,0,0,1-.537.134,13.045,13.045,0,0,1-7.048-6.041.507.507,0,0,1,.067-.537l1.611-1.812a.827.827,0,0,0,.134-.671l-1.947-4.363a.585.585,0,0,0-.537-.4" transform="translate(-121.995 -126.887)" fill="#fefefe"/>
</svg>
